<svg xmlns="http://www.w3.org/2000/svg" width="26" height="26" viewBox="0 0 26 26"><g fill="#fff" transform="translate(5 -1031.362)"><circle cx="8" cy="1044.362" r="13" fill="#1d67b1" fill-rule="evenodd"/><path fill="#154082" style="line-height:normal;text-indent:0;text-align:start;text-decoration-line:none;text-decoration-style:solid;text-decoration-color:#000;text-transform:none;block-progression:tb;isolation:auto;mix-blend-mode:normal" d="M 13.482422 25.982422 A 12.999989 12.999989 0 0 0 13.919922 25.966797 A 12.999989 12.999989 0 0 0 15.208984 25.810547 A 12.999989 12.999989 0 0 0 16.476562 25.525391 A 12.999989 12.999989 0 0 0 17.710938 25.117188 A 12.999989 12.999989 0 0 0 18.896484 24.585938 A 12.999989 12.999989 0 0 0 20.023438 23.939453 A 12.999989 12.999989 0 0 0 21.080078 23.183594 A 12.999989 12.999989 0 0 0 22.056641 22.326172 A 12.999989 12.999989 0 0 0 22.943359 21.375 A 12.999989 12.999989 0 0 0 23.728516 20.339844 A 12.999989 12.999989 0 0 0 24.408203 19.232422 A 12.999989 12.999989 0 0 0 24.974609 18.0625 A 12.999989 12.999989 0 0 0 25.419922 16.841797 A 12.999989 12.999989 0 0 0 25.740234 15.582031 A 12.999989 12.999989 0 0 0 25.935547 14.296875 A 12.999989 12.999989 0 0 0 25.976562 13.476562 L 18 5.5 A 0.50004997 0.50004997 0 0 0 17.5 5 L 8.5 5 A 0.50004997 0.50004997 0 0 0 8 5.5 L 8 20.5 A 0.50004997 0.50004997 0 0 0 8.5 21 L 13.482422 25.982422 z " color="#000" font-family="sans-serif" font-weight="400" transform="translate(-5 1031.362)"/><path style="line-height:normal;text-indent:0;text-align:start;text-decoration-line:none;text-decoration-style:solid;text-decoration-color:#000;text-transform:none;block-progression:tb;isolation:auto;mix-blend-mode:normal" d="M 3.5,0 A 0.50004997,0.50004997 0 0 0 3,0.5 l 0,15 A 0.50004997,0.50004997 0 0 0 3.5,16 l 9,0 A 0.50004997,0.50004997 0 0 0 13,15.5 l 0,-15 A 0.50004997,0.50004997 0 0 0 12.5,0 l -9,0 z M 4,1 12,1 12,3 4.0996094,3 A 0.50005,0.50005 0 0 0 4,3.0078125 L 4,1 Z m 2.5,0.5 0,1 3,0 0,-1 -3,0 z M 4,3.9882812 A 0.50005,0.50005 0 0 0 4.0996094,4 L 12,4 12,12 4.0996094,12 A 0.50005,0.50005 0 0 0 4,12.007812 L 4,3.9882812 Z M 4,12.988281 A 0.50005,0.50005 0 0 0 4.0996094,13 L 12,13 12,15 4,15 4,12.988281 Z M 8,13.5 A 0.49997076,0.49997076 0 0 0 7.5,14 0.49997076,0.49997076 0 0 0 8,14.5 0.49997076,0.49997076 0 0 0 8.5,14 0.49997076,0.49997076 0 0 0 8,13.5 Z" color="#000" font-family="sans-serif" font-weight="400" opacity=".98" overflow="visible" transform="translate(0 1036.362)"/></g></svg>